<svg width="100%" height="100%" viewBox="0 0 596 120" version="1.1" xmlns="http://www.w3.org/2000/svg" xmlns:xlink="http://www.w3.org/1999/xlink" xml:space="preserve" xmlns:serif="http://www.serif.com/" style="fill-rule:evenodd;clip-rule:evenodd;stroke-linejoin:round;stroke-miterlimit:2;">
    <g transform="matrix(1,0,0,1,0,-0.5)">
        <g id="path-1" transform="matrix(4.16667,0,0,4.16667,0,0.5)">
            <path d="M63.689,11.234L55.291,0L50.471,0L61.279,14.459L51.159,28L55.979,28L63.689,17.684L66.099,14.459L76.908,0L72.087,0L63.689,11.234ZM94.332,17.872L99.438,5.362L104.546,17.872L94.332,17.872ZM97.402,0L85.92,28L90.104,28L92.743,21.572L106.133,21.572L108.771,28L112.958,28L101.477,0L97.402,0ZM68.686,18.215C67.644,19.566 67.63,21.407 68.653,22.772L72.571,28L77.508,28L69.411,17.277L68.686,18.215ZM127.703,24.157L127.703,0L123.773,0L123.773,28L143,28L143,24.157L127.703,24.157ZM35.45,28L39.053,28L39.055,0L35.45,0L35.45,28ZM16.877,10.636C16.145,11.406 15.165,11.859 14.112,11.915C13.667,11.912 10.423,11.91 4.206,11.91L4.206,3.574L13.901,3.574C16.174,3.574 18.025,5.445 18.025,7.746C18.025,8.83 17.617,9.856 16.877,10.636ZM13.901,24.426L4.206,24.426L4.206,16.09L6.323,16.09C9.749,16.088 13.625,16.088 14.112,16.085C15.165,16.138 16.145,16.594 16.877,17.364C17.617,18.144 18.025,19.17 18.025,20.254C18.025,22.555 16.174,24.426 13.901,24.426ZM20.998,11.064C21.416,10.08 21.63,9.036 21.63,7.963C21.63,6.89 21.416,5.849 20.998,4.862C20.593,3.913 20.016,3.064 19.282,2.332C18.546,1.602 17.689,1.028 16.733,0.628C15.743,0.213 14.695,0 13.614,0L0,0L0,28L13.614,28C14.695,28 15.743,27.787 16.733,27.372C17.689,26.972 18.544,26.398 19.282,25.667C20.016,24.936 20.595,24.084 20.998,23.137C21.416,22.154 21.628,21.11 21.628,20.037C21.628,18.961 21.416,17.92 20.998,16.936C20.595,15.989 20.018,15.137 19.282,14.406C19.139,14.264 18.994,14.13 18.84,13.999C18.994,13.87 19.139,13.733 19.282,13.594C20.016,12.863 20.595,12.011 20.998,11.064Z"/>
        </g>
    </g>
</svg>
